<svg width="33" height="33" viewBox="0 0 33 33" fill="none" xmlns="http://www.w3.org/2000/svg">
<path d="M16.75 8.41406C21.1797 8.41406 24.8359 12.0703 24.8359 16.5C24.8359 21 21.1797 24.5859 16.75 24.5859C12.25 24.5859 8.66406 21 8.66406 16.5C8.66406 12.0703 12.25 8.41406 16.75 8.41406ZM16.75 21.7734C19.6328 21.7734 21.9531 19.4531 21.9531 16.5C21.9531 13.6172 19.6328 11.2969 16.75 11.2969C13.7969 11.2969 11.4766 13.6172 11.4766 16.5C11.4766 19.4531 13.8672 21.7734 16.75 21.7734ZM27.0156 8.13281C27.0156 7.07812 26.1719 6.23438 25.1172 6.23438C24.0625 6.23438 23.2188 7.07812 23.2188 8.13281C23.2188 9.1875 24.0625 10.0312 25.1172 10.0312C26.1719 10.0312 27.0156 9.1875 27.0156 8.13281ZM32.3594 10.0312C32.5 12.6328 32.5 20.4375 32.3594 23.0391C32.2188 25.5703 31.6562 27.75 29.8281 29.6484C28 31.4766 25.75 32.0391 23.2188 32.1797C20.6172 32.3203 12.8125 32.3203 10.2109 32.1797C7.67969 32.0391 5.5 31.4766 3.60156 29.6484C1.77344 27.75 1.21094 25.5703 1.07031 23.0391C0.929688 20.4375 0.929688 12.6328 1.07031 10.0312C1.21094 7.5 1.77344 5.25 3.60156 3.42188C5.5 1.59375 7.67969 1.03125 10.2109 0.890625C12.8125 0.75 20.6172 0.75 23.2188 0.890625C25.75 1.03125 28 1.59375 29.8281 3.42188C31.6562 5.25 32.2188 7.5 32.3594 10.0312ZM28.9844 25.7812C29.8281 23.7422 29.6172 18.8203 29.6172 16.5C29.6172 14.25 29.8281 9.32812 28.9844 7.21875C28.4219 5.88281 27.3672 4.75781 26.0312 4.26562C23.9219 3.42188 19 3.63281 16.75 3.63281C14.4297 3.63281 9.50781 3.42188 7.46875 4.26562C6.0625 4.82812 5.00781 5.88281 4.44531 7.21875C3.60156 9.32812 3.8125 14.25 3.8125 16.5C3.8125 18.8203 3.60156 23.7422 4.44531 25.7812C5.00781 27.1875 6.0625 28.2422 7.46875 28.8047C9.50781 29.6484 14.4297 29.4375 16.75 29.4375C19 29.4375 23.9219 29.6484 26.0312 28.8047C27.3672 28.2422 28.4922 27.1875 28.9844 25.7812Z" fill="white"/>
</svg>
