<?xml version="1.0" encoding="UTF-8"?>
<svg id="Capa_2" data-name="Capa 2" xmlns="http://www.w3.org/2000/svg" viewBox="0 0 56.2 52.08">
  <defs>
    <style>
      .cls-1 {
        fill: #46b26c;
      }
    </style>
  </defs>
  <g id="_1" data-name="1">
    <g>
      <g>
        <path class="cls-1" d="m32.32,1.83c1.11,1.82.51,4.15-1.31,5.16-1.82,1.11-4.15.51-5.16-1.32-1.11-1.82-.51-4.15,1.31-5.16,1.82-1.01,4.15-.51,5.16,1.31Z"/>
        <path class="cls-1" d="m45.17,6.68c.2.4.4.81.4,1.32,0,.81-.4,1.72-1.21,2.12l-7.59,4.25-3.24,1.92-.61,6.27,4.35,4.75,1.72,9c.2,1.01-.3,1.92-1.11,2.43-.41.2-.81.3-1.21.3-1.11,0-2.12-.71-2.33-1.92l-1.32-7.28-4.55-4.65-9.71,5.87-6.37-1.42c-1.72-.4-2.43-2.53-1.21-3.84.4-.51,1.11-.81,1.72-.81h.3l4.96.61,4.45-2.63.71-6.47-3.03-1.42-6.07,2.63c-1.42.61-3.14-.2-3.54-1.72-.1-.2-.1-.4-.1-.61,0-1.01.61-1.92,1.52-2.33l9.41-4.15,3.03,2.53,6.27.61,3.24-1.92,7.59-4.25c1.32-.81,2.83-.4,3.54.81Z"/>
      </g>
      <g>
        <path class="cls-1" d="m3.76,48.68l.16.56-1.05,2.08H0l4.95-9.71,4.97,9.71h-2.86l-1.04-1.99.14-.65-1.21-2.73-1.2,2.73Zm-1.1-.69h4.67l.06,1.86H2.57l.08-1.86Z"/>
        <path class="cls-1" d="m12.78,49.07c.13.21.31.37.53.47s.47.16.73.16c.22,0,.43-.03.64-.09.21-.06.4-.15.58-.28.18-.13.33-.28.45-.46v2.11c-.21.13-.46.24-.74.33-.29.09-.66.14-1.13.14-.68,0-1.3-.13-1.83-.38-.54-.26-.96-.62-1.27-1.09-.31-.47-.46-1.02-.46-1.65s.15-1.19.46-1.66c.31-.46.73-.82,1.27-1.08.54-.26,1.15-.38,1.83-.38.47,0,.84.05,1.13.14.29.09.53.2.74.32v2.11c-.12-.19-.28-.35-.47-.47-.2-.12-.4-.21-.6-.27-.21-.06-.4-.08-.58-.08-.26,0-.5.06-.73.18-.23.12-.4.29-.53.49-.13.21-.2.44-.2.7,0,.29.06.53.2.74Z"/>
        <path class="cls-1" d="m20.72,45.34v1.82h-4.3v-1.82h4.3Zm-1.08-2.08v8.06h-2.15v-8.06h2.15Z"/>
        <path class="cls-1" d="m21.72,42.32c.25-.22.54-.32.89-.32s.66.11.9.32c.25.22.37.5.37.85s-.12.62-.37.83-.55.32-.9.32-.64-.11-.89-.32-.37-.49-.37-.83.12-.63.37-.85Zm1.97,3.02v5.98h-2.16v-5.98h2.16Z"/>
        <path class="cls-1" d="m26.77,45.34l1.26,3.06,1.27-3.06h2.38l-3.65,6.75-3.64-6.75h2.38Z"/>
        <path class="cls-1" d="m34.27,49.78c.07.09.15.16.27.21.11.05.23.07.36.07.19,0,.37-.04.55-.12.17-.08.31-.21.42-.39s.16-.4.16-.67l.21.78c0,.38-.1.71-.29.98-.19.27-.46.47-.79.61-.33.14-.7.21-1.1.21s-.73-.07-1.06-.21c-.32-.14-.59-.36-.79-.64-.2-.28-.3-.63-.3-1.03,0-.57.2-1.02.6-1.35.4-.33.99-.49,1.75-.49.33,0,.64.03.93.09s.55.14.77.24c.22.1.39.21.5.33v.95c-.17-.15-.39-.26-.65-.34-.26-.08-.53-.12-.82-.12-.2,0-.36.02-.48.06s-.21.11-.26.19-.08.19-.08.32.03.24.1.33Zm-1.9-3.95c.38-.16.82-.32,1.32-.46.5-.14,1.03-.21,1.59-.21s1.04.08,1.48.23c.44.15.78.38,1.04.67.25.29.38.65.38,1.08v4.19h-2.14v-3.65c0-.13-.02-.25-.06-.35s-.1-.19-.19-.27c-.09-.07-.2-.13-.34-.17s-.3-.06-.48-.06c-.25,0-.51.03-.77.09-.26.06-.5.13-.7.21-.2.08-.34.14-.42.18l-.71-1.47Z"/>
        <path class="cls-1" d="m41.77,51.32h-2.2v-5.98h2.2v5.98Zm1.38-3.93c-.12-.06-.26-.1-.44-.1s-.33.05-.48.14c-.15.1-.26.24-.34.43-.08.19-.12.43-.12.71l-.47-.9c0-.48.09-.9.29-1.27.19-.37.44-.67.76-.89.32-.22.65-.33,1-.33.22,0,.42.05.62.15.2.1.35.22.44.37l-.94,1.94c-.1-.1-.2-.19-.32-.25Z"/>
        <path class="cls-1" d="m48.84,45.34v1.82h-4.3v-1.82h4.3Zm-1.08-2.08v8.06h-2.15v-8.06h2.15Z"/>
        <path class="cls-1" d="m50.96,51.06c-.53-.26-.94-.62-1.23-1.08-.29-.46-.43-1.02-.43-1.66s.14-1.21.42-1.67c.28-.46.68-.82,1.2-1.07.52-.25,1.14-.38,1.87-.38s1.34.12,1.83.35c.49.23.87.57,1.13,1.02.26.45.39.99.39,1.64,0,.1,0,.21,0,.31s-.01.19-.02.27h-5.58v-1.16h3.52l-.48.6c.04-.07.08-.15.12-.23.03-.09.05-.16.05-.22,0-.24-.04-.45-.12-.62-.08-.17-.2-.3-.35-.39-.15-.09-.33-.14-.54-.14-.26,0-.48.06-.65.18-.17.12-.3.31-.39.55-.09.25-.13.56-.13.94,0,.34.03.62.13.86s.23.41.42.54.41.19.68.19c.33,0,.61-.06.84-.18.23-.12.41-.29.54-.51l2.03.4c-.32.62-.76,1.07-1.31,1.38-.55.3-1.22.46-2.02.46-.74,0-1.37-.13-1.9-.38Z"/>
      </g>
    </g>
  </g>
</svg>